{
  "accessors": [
    {
      "bufferView": 2,
      "componentType": 5126,
      "count": 10,
      "max": [
        4.3743181228637695,
        4.624355792999268,
        -0.046185001730918884
      ],
      "min": [
        -0.14263099431991577,
        2.071010112762451,
        -0.19390800595283508
      ],
      "type": "VEC3"
    },
    {
      "bufferView": 1,
      "componentType": 5126,
      "count": 10,
      "max": [
        0.0,
        0.0
      ],
      "min": [
        0.0,
        0.0
      ],
      "type": "VEC2"
    },
    {
      "bufferView": 0,
      "componentType": 5125,
      "count": 10,
      "type": "SCALAR"
    },
    {
      "bufferView": 2,
      "byteOffset": 120,
      "componentType": 5126,
      "count": 9115,
      "max": [
        1.6271929740905762,
        2.117501974105835,
        0.7263079881668091
      ],
      "min": [
        -1.9917360544204712,
        -4.451233863830566,
        0.10748899728059769
      ],
      "type": "VEC3"
    },
    {
      "bufferView": 2,
      "byteOffset": 109500,
      "componentType": 5126,
      "count": 9115,
      "max": [
        0.0,
        0.0012999989558011293,
        1.0
      ],
      "min": [
        0.0,
        -0.02579915151000023,
        -1.0
      ],
      "type": "VEC3"
    },
    {
      "bufferView": 1,
      "byteOffset": 80,
      "componentType": 5126,
      "count": 9115,
      "max": [
        0.0,
        0.0
      ],
      "min": [
        0.0,
        0.0
      ],
      "type": "VEC2"
    },
    {
      "bufferView": 0,
      "byteOffset": 40,
      "componentType": 5125,
      "count": 24636,
      "type": "SCALAR"
    },
    {
      "bufferView": 2,
      "byteOffset": 218880,
      "componentType": 5126,
      "count": 8376,
      "max": [
        1.6271929740905762,
        2.117501974105835,
        0.7263079881668091
      ],
      "min": [
        -1.9917360544204712,
        -4.451233863830566,
        0.10748899728059769
      ],
      "type": "VEC3"
    },
    {
      "bufferView": 2,
      "byteOffset": 319392,
      "componentType": 5126,
      "count": 8376,
      "max": [
        1.0,
        1.0,
        0.0
      ],
      "min": [
        -1.0,
        -1.0,
        0.0
      ],
      "type": "VEC3"
    },
    {
      "bufferView": 1,
      "byteOffset": 73000,
      "componentType": 5126,
      "count": 8376,
      "max": [
        0.0,
        0.0
      ],
      "min": [
        0.0,
        0.0
      ],
      "type": "VEC2"
    },
    {
      "bufferView": 0,
      "byteOffset": 98584,
      "componentType": 5125,
      "count": 25128,
      "type": "SCALAR"
    },
    {
      "bufferView": 2,
      "byteOffset": 419904,
      "componentType": 5126,
      "count": 65533,
      "max": [
        4.56939697265625,
        4.710275173187256,
        -0.0461839996278286
      ],
      "min": [
        -4.659335136413574,
        -3.7178781032562256,
        -0.19390900433063507
      ],
      "type": "VEC3"
    },
    {
      "bufferView": 2,
      "byteOffset": 1206300,
      "componentType": 5126,
      "count": 65533,
      "max": [
        0.999915599822998,
        0.999915599822998,
        1.0
      ],
      "min": [
        -0.999915599822998,
        -0.999914288520813,
        -1.0
      ],
      "type": "VEC3"
    },
    {
      "bufferView": 1,
      "byteOffset": 140008,
      "componentType": 5126,
      "count": 65533,
      "max": [
        0.12796799838542938,
        0.17796100676059723
      ],
      "min": [
        0.12203200161457062,
        0.17203199863433838
      ],
      "type": "VEC2"
    },
    {
      "bufferView": 0,
      "byteOffset": 199096,
      "componentType": 5125,
      "count": 221043,
      "type": "SCALAR"
    },
    {
      "bufferView": 2,
      "byteOffset": 1992696,
      "componentType": 5126,
      "count": 65532,
      "max": [
        4.808541774749756,
        4.8402299880981445,
        0.7106059789657593
      ],
      "min": [
        -4.8595290184021,
        -4.8278422355651855,
        -0.19390900433063507
      ],
      "type": "VEC3"
    },
    {
      "bufferView": 2,
      "byteOffset": 2779080,
      "componentType": 5126,
      "count": 65532,
      "max": [
        1.0,
        1.0,
        1.0
      ],
      "min": [
        -1.0,
        -1.0,
        -1.0
      ],
      "type": "VEC3"
    },
    {
      "bufferView": 1,
      "byteOffset": 664272,
      "componentType": 5126,
      "count": 65532,
      "max": [
        0.8888649940490723,
        0.7819960117340088
      ],
      "min": [
        0.11808200180530548,
        0.1170009970664978
      ],
      "type": "VEC2"
    },
    {
      "bufferView": 0,
      "byteOffset": 1083268,
      "componentType": 5125,
      "count": 109638,
      "type": "SCALAR"
    },
    {
      "bufferView": 2,
      "byteOffset": 3565464,
      "componentType": 5126,
      "count": 65532,
      "max": [
        4.808541774749756,
        4.8402299880981445,
        0.13514100015163422
      ],
      "min": [
        -4.8595290184021,
        -4.8278422355651855,
        -0.19390900433063507
      ],
      "type": "VEC3"
    },
    {
      "bufferView": 2,
      "byteOffset": 4351848,
      "componentType": 5126,
      "count": 65532,
      "max": [
        0.999915599822998,
        0.999915599822998,
        1.0
      ],
      "min": [
        -1.0,
        -1.0,
        -1.0
      ],
      "type": "VEC3"
    },
    {
      "bufferView": 1,
      "byteOffset": 1188528,
      "componentType": 5126,
      "count": 65532,
      "max": [
        0.12844400107860565,
        0.7814990282058716
      ],
      "min": [
        0.11808200180530548,
        0.17203199863433838
      ],
      "type": "VEC2"
    },
    {
      "bufferView": 0,
      "byteOffset": 1521820,
      "componentType": 5125,
      "count": 118200,
      "type": "SCALAR"
    },
    {
      "bufferView": 2,
      "byteOffset": 5138232,
      "componentType": 5126,
      "count": 12331,
      "max": [
        4.708499908447266,
        4.755830764770508,
        0.7106059789657593
      ],
      "min": [
        -4.801360130310059,
        -4.754032135009766,
        -0.020433999598026276
      ],
      "type": "VEC3"
    },
    {
      "bufferView": 2,
      "byteOffset": 5286204,
      "componentType": 5126,
      "count": 12331,
      "max": [
        -0.0,
        0.0,
        1.0
      ],
      "min": [
        -0.0,
        0.0,
        -1.0
      ],
      "type": "VEC3"
    },
    {
      "bufferView": 1,
      "byteOffset": 1712784,
      "componentType": 5126,
      "count": 12331,
      "max": [
        0.3844450116157532,
        0.2591870129108429
      ],
      "min": [
        0.11808200180530548,
        0.1170009970664978
      ],
      "type": "VEC2"
    },
    {
      "bufferView": 0,
      "byteOffset": 1994620,
      "componentType": 5125,
      "count": 34659,
      "type": "SCALAR"
    },
    {
      "bufferView": 2,
      "byteOffset": 5434176,
      "componentType": 5126,
      "count": 9992,
      "max": [
        1.6972620487213135,
        2.53045392036438,
        -0.09939099848270416
      ],
      "min": [
        -1.475775957107544,
        -2.424247980117798,
        -0.4219740033149719
      ],
      "type": "VEC3"
    },
    {
      "bufferView": 2,
      "byteOffset": 5554080,
      "componentType": 5126,
      "count": 9992,
      "max": [
        1.0,
        0.9999985694885254,
        0.9999985694885254
      ],
      "min": [
        -1.0,
        -0.9999985694885254,
        -0.9999985694885254
      ],
      "type": "VEC3"
    },
    {
      "bufferView": 1,
      "byteOffset": 1811432,
      "componentType": 5126,
      "count": 9992,
      "max": [
        1.0,
        1.0
      ],
      "min": [
        0.0,
        0.0
      ],
      "type": "VEC2"
    },
    {
      "bufferView": 0,
      "byteOffset": 2133256,
      "componentType": 5125,
      "count": 14988,
      "type": "SCALAR"
    },
    {
      "bufferView": 2,
      "byteOffset": 5673984,
      "componentType": 5126,
      "count": 1008,
      "max": [
        0.9813050031661987,
        2.0969951152801514,
        -0.16523399949073792
      ],
      "min": [
        -1.0473569631576538,
        1.478355050086975,
        -0.3144800066947937
      ],
      "type": "VEC3"
    },
    {
      "bufferView": 2,
      "byteOffset": 5686080,
      "componentType": 5126,
      "count": 1008,
      "max": [
        1.0,
        0.9999985694885254,
        0.9999985694885254
      ],
      "min": [
        -1.0,
        -0.9999985694885254,
        -0.9999985694885254
      ],
      "type": "VEC3"
    },
    {
      "bufferView": 1,
      "byteOffset": 1891368,
      "componentType": 5126,
      "count": 1008,
      "max": [
        0.6098210215568542,
        0.7723209857940674
      ],
      "min": [
        0.3744570016860962,
        0.7463319897651672
      ],
      "type": "VEC2"
    },
    {
      "bufferView": 0,
      "byteOffset": 2193208,
      "componentType": 5125,
      "count": 1512,
      "type": "SCALAR"
    }
  ],
  "asset": {
    "extras": {
      "author": "Хлюпич (https://sketchfab.com/foxplay382)",
      "license": "CC-BY-4.0 (http://creativecommons.org/licenses/by/4.0/)",
      "source": "https://sketchfab.com/3d-models/old-intel-core-i7-860-lga1156-1b128563e9634e919cf44292f032efaa",
      "title": "[Old] INTEL Core i7-860 LGA1156"
    },
    "generator": "Sketchfab-14.20.0",
    "version": "2.0"
  },
  "bufferViews": [
    {
      "buffer": 0,
      "byteLength": 2199256,
      "name": "floatBufferViews",
      "target": 34963
    },
    {
      "buffer": 0,
      "byteLength": 1899432,
      "byteOffset": 2199256,
      "byteStride": 8,
      "name": "floatBufferViews",
      "target": 34962
    },
    {
      "buffer": 0,
      "byteLength": 5698176,
      "byteOffset": 4098688,
      "byteStride": 12,
      "name": "floatBufferViews",
      "target": 34962
    }
  ],
  "buffers": [
    {
      "byteLength": 9796864,
      "uri": "scene.bin"
    }
  ],
  "images": [
    {
      "uri": "textures/None_3543.png.224_baseColor.png"
    }
  ],
  "materials": [
    {
      "doubleSided": true,
      "name": "None_3543.png.224",
      "pbrMetallicRoughness": {
        "baseColorTexture": {
          "index": 0
        },
        "metallicFactor": 0.0,
        "roughnessFactor": 0.6
      }
    }
  ],
  "meshes": [
    {
      "name": "Object_0",
      "primitives": [
        {
          "attributes": {
            "POSITION": 0,
            "TEXCOORD_0": 1
          },
          "indices": 2,
          "material": 0,
          "mode": 1
        }
      ]
    },
    {
      "name": "Object_1",
      "primitives": [
        {
          "attributes": {
            "NORMAL": 4,
            "POSITION": 3,
            "TEXCOORD_0": 5
          },
          "indices": 6,
          "material": 0,
          "mode": 4
        }
      ]
    },
    {
      "name": "Object_2",
      "primitives": [
        {
          "attributes": {
            "NORMAL": 8,
            "POSITION": 7,
            "TEXCOORD_0": 9
          },
          "indices": 10,
          "material": 0,
          "mode": 4
        }
      ]
    },
    {
      "name": "Object_3",
      "primitives": [
        {
          "attributes": {
            "NORMAL": 12,
            "POSITION": 11,
            "TEXCOORD_0": 13
          },
          "indices": 14,
          "material": 0,
          "mode": 4
        }
      ]
    },
    {
      "name": "Object_4",
      "primitives": [
        {
          "attributes": {
            "NORMAL": 16,
            "POSITION": 15,
            "TEXCOORD_0": 17
          },
          "indices": 18,
          "material": 0,
          "mode": 4
        }
      ]
    },
    {
      "name": "Object_5",
      "primitives": [
        {
          "attributes": {
            "NORMAL": 20,
            "POSITION": 19,
            "TEXCOORD_0": 21
          },
          "indices": 22,
          "material": 0,
          "mode": 4
        }
      ]
    },
    {
      "name": "Object_6",
      "primitives": [
        {
          "attributes": {
            "NORMAL": 24,
            "POSITION": 23,
            "TEXCOORD_0": 25
          },
          "indices": 26,
          "material": 0,
          "mode": 4
        }
      ]
    },
    {
      "name": "Object_7",
      "primitives": [
        {
          "attributes": {
            "NORMAL": 28,
            "POSITION": 27,
            "TEXCOORD_0": 29
          },
          "indices": 30,
          "material": 0,
          "mode": 4
        }
      ]
    },
    {
      "name": "Object_8",
      "primitives": [
        {
          "attributes": {
            "NORMAL": 32,
            "POSITION": 31,
            "TEXCOORD_0": 33
          },
          "indices": 34,
          "material": 0,
          "mode": 4
        }
      ]
    }
  ],
  "nodes": [
    {
      "children": [
        1
      ],
      "matrix": [
        1.58628511428833,
        0.0,
        0.0,
        0.0,
        0.0,
        3.522260515006104e-16,
        -1.58628511428833,
        0.0,
        0.0,
        1.58628511428833,
        3.522260515006104e-16,
        0.0,
        0.0,
        0.0,
        0.0,
        1.0
      ],
      "name": "Sketchfab_model"
    },
    {
      "children": [
        2,
        3,
        4,
        5,
        6,
        7,
        8,
        9,
        10
      ],
      "name": "1156.obj.cleaner.materialmerger.gles"
    },
    {
      "mesh": 0,
      "name": "Object_2"
    },
    {
      "mesh": 1,
      "name": "Object_3"
    },
    {
      "mesh": 2,
      "name": "Object_4"
    },
    {
      "mesh": 3,
      "name": "Object_5"
    },
    {
      "mesh": 4,
      "name": "Object_6"
    },
    {
      "mesh": 5,
      "name": "Object_7"
    },
    {
      "mesh": 6,
      "name": "Object_8"
    },
    {
      "mesh": 7,
      "name": "Object_9"
    },
    {
      "mesh": 8,
      "name": "Object_10"
    }
  ],
  "samplers": [
    {
      "magFilter": 9729,
      "minFilter": 9987,
      "wrapS": 10497,
      "wrapT": 10497
    }
  ],
  "scene": 0,
  "scenes": [
    {
      "name": "Sketchfab_Scene",
      "nodes": [
        0
      ]
    }
  ],
  "textures": [
    {
      "sampler": 0,
      "source": 0
    }
  ]
}
